<?xml version="1.0" standalone="no"?>
<!DOCTYPE svg PUBLIC "-//W3C//DTD SVG 20010904//EN"
 "http://www.w3.org/TR/2001/REC-SVG-20010904/DTD/svg10.dtd">
<svg version="1.0" xmlns="http://www.w3.org/2000/svg"
 width="256.000000pt" height="256.000000pt" viewBox="0 0 256.000000 256.000000"
 preserveAspectRatio="xMidYMid meet">

<g transform="translate(0.000000,256.000000) scale(0.100000,-0.100000)"
fill="#000000" stroke="none">
<path d="M1195 2554 c-132 -32 -237 -97 -347 -213 -131 -138 -230 -323 -286
-534 -23 -90 -26 -121 -26 -257 -1 -122 3 -169 18 -220 26 -88 75 -195 124
-266 46 -69 163 -183 222 -216 22 -13 40 -27 40 -31 0 -9 -85 -47 -106 -47 -8
0 -14 4 -14 9 0 20 -38 16 -120 -12 -109 -37 -159 -66 -204 -119 -68 -80 -76
-118 -76 -386 0 -172 3 -241 12 -250 19 -19 45 -14 63 11 l15 22 769 3 768 3
17 -26 c18 -27 45 -32 64 -13 9 9 12 78 12 250 0 268 -8 306 -76 386 -49 57
-96 83 -254 137 -74 25 -138 49 -143 54 -4 4 11 21 33 36 58 40 168 161 209
228 87 146 116 260 116 452 -1 161 -15 240 -72 390 -107 285 -306 514 -511
586 -55 20 -203 34 -247 23z m305 -604 c85 -29 122 -48 198 -104 l63 -47 -3
-207 -3 -207 -36 -75 c-87 -181 -244 -282 -439 -282 -217 0 -393 129 -462 338
-16 49 -27 68 -45 75 -23 8 -23 11 -23 151 l0 143 31 38 c37 45 139 119 205
149 100 45 179 58 319 54 101 -3 145 -9 195 -26z"/>
<path d="M1230 1778 c-77 -22 -130 -89 -130 -162 0 -30 5 -39 26 -48 23 -11
29 -10 45 11 11 13 19 34 19 47 0 46 61 83 115 70 43 -11 65 -41 65 -90 0 -41
-4 -48 -49 -86 -27 -23 -57 -57 -65 -75 -20 -42 -20 -99 -1 -115 22 -18 65 2
65 30 0 32 16 56 67 103 25 23 52 56 59 74 35 82 -1 189 -76 228 -37 19 -100
25 -140 13z"/>
<path d="M1244 1236 c-9 -23 -1 -48 19 -60 25 -16 52 4 52 40 0 25 -4 29 -33
32 -22 2 -34 -2 -38 -12z"/>
</g>
</svg>
