<svg width="514" height="514" viewBox="0 0 514 514" fill="none" xmlns="http://www.w3.org/2000/svg">
<path d="M220.699 356.482C212.534 356.303 203.932 354.83 194.893 352.064C186.081 349.536 178.239 345.396 171.368 339.644C164.729 333.897 160.349 326.332 158.228 316.95C158.021 315.778 157.817 314.49 157.615 313.085C157.647 311.686 157.678 310.286 157.71 308.886C157.874 301.655 159.665 294.693 163.084 287.999C166.503 281.306 170.585 276.262 175.33 272.865L175.68 272.873C176.146 272.883 176.716 273.479 177.39 274.661C178.302 275.614 178.286 276.314 177.342 276.76C174.957 279.042 173.146 281.686 171.911 284.693C170.915 287.471 170.38 290.494 170.306 293.76C170.205 298.192 170.802 302.756 172.096 307.452C173.629 311.92 175.525 315.813 177.783 319.13C183.431 327.423 191.331 334.131 201.484 339.256C211.876 344.152 222.087 346.71 232.118 346.931C245.882 347.234 256.588 343.385 264.238 335.384C272.121 327.389 276.197 317.443 276.466 305.546C276.63 298.314 275.394 291.052 272.758 283.759C269.253 273.646 264.459 263.738 258.377 254.036C252.534 244.105 247.152 234.418 242.231 224.974C237.989 216.479 235.965 207.915 236.161 199.284C236.366 190.187 239.364 181.5 245.153 173.226C250.92 165.884 258.403 160.097 267.601 155.865C277.038 151.404 286.538 149.279 296.103 149.49C302.634 149.633 308.907 150.938 314.919 153.404C320.931 155.87 326.326 159.84 331.104 165.313C332.456 167.443 333.095 170.141 333.021 173.407C332.915 178.072 331.9 181.668 329.976 184.193C327.808 187.179 325.385 191.093 322.708 195.936C320.032 200.778 318.439 204.127 317.93 205.983C317.458 206.206 316.281 206.647 314.399 207.306C312.756 207.736 311.708 207.597 311.258 206.887C312.233 205.041 313.593 201.687 315.336 196.824C317.08 191.961 317.997 187.547 318.087 183.581C318.145 181.015 318.092 178.213 317.927 175.176C318.001 171.91 316.548 169.077 313.568 166.678C310.827 164.05 307.261 161.755 302.871 159.791C298.481 157.827 293.137 156.776 286.839 156.638C274.008 156.356 264.126 159.873 257.192 167.189C250.258 174.505 246.691 182.595 246.49 191.459C246.39 195.892 247.223 200.344 248.989 204.818C252.298 213.292 257.017 221.331 263.146 228.935C269.276 236.538 275.284 244.372 281.169 252.436C287.293 260.273 292.002 268.778 295.295 277.953C297.491 284.069 298.517 290.277 298.375 296.575C298.169 305.673 295.649 313.903 290.814 321.265C286.213 328.632 280 335.031 272.175 340.46C264.589 345.661 256.329 349.68 247.396 352.518C238.463 355.356 229.564 356.677 220.699 356.482Z" fill="white"/>
<path d="M264.778 24.2218L257 16.4437L249.222 24.2218L24.2218 249.222L16.4437 257L24.2218 264.778L249.222 489.778L257 497.556L264.778 489.778L489.778 264.778L497.556 257L489.778 249.222L264.778 24.2218Z" stroke="white" stroke-width="22"/>
</svg>
